<svg width="168" height="25" viewBox="0 0 168 25" fill="none" xmlns="http://www.w3.org/2000/svg">
<path fill-rule="evenodd" clip-rule="evenodd" d="M22 12.5325C22 7.00947 17.523 2.53247 12 2.53247C6.477 2.53247 2 7.00947 2 12.5325C2 17.5235 5.657 21.6605 10.438 22.4105V15.4235H7.898V12.5325H10.438V10.3295C10.438 7.82347 11.93 6.43947 14.215 6.43947C15.309 6.43947 16.453 6.63447 16.453 6.63447V9.09447H15.193C13.95 9.09447 13.563 9.86547 13.563 10.6565V12.5325H16.336L15.893 15.4225H13.563V22.4105C18.343 21.6605 22 17.5235 22 12.5325Z" fill="white"/>
<path fill-rule="evenodd" clip-rule="evenodd" d="M60.315 2.53247C62.745 2.53247 63.099 2.54547 64.123 2.59247C65.187 2.64147 65.914 2.81047 66.55 3.05747C67.2175 3.30834 67.8222 3.70183 68.322 4.21047C68.8306 4.71024 69.2241 5.31497 69.475 5.98247C69.722 6.61847 69.891 7.34547 69.94 8.40947C69.988 9.47647 70 9.81647 70 12.5325V12.6125C70 15.2555 69.988 15.5995 69.94 16.6555C69.891 17.7195 69.722 18.4465 69.475 19.0825C69.2241 19.75 68.8306 20.3547 68.322 20.8545C67.8222 21.3631 67.2175 21.7566 66.55 22.0075C65.914 22.2545 65.187 22.4235 64.123 22.4725C63.056 22.5205 62.716 22.5325 60 22.5325H59.92C57.277 22.5325 56.933 22.5205 55.877 22.4725C54.813 22.4235 54.086 22.2545 53.45 22.0075C52.7825 21.7566 52.1778 21.3631 51.678 20.8545C51.1694 20.3547 50.7759 19.75 50.525 19.0825C50.278 18.4465 50.109 17.7195 50.06 16.6555C50.013 15.6315 50 15.2765 50 12.8475V12.2175C50 9.78747 50.013 9.43347 50.06 8.40947C50.109 7.34547 50.278 6.61847 50.525 5.98247C50.7759 5.31497 51.1694 4.71024 51.678 4.21047C52.1778 3.70183 52.7825 3.30834 53.45 3.05747C54.086 2.81047 54.813 2.64147 55.877 2.59247C56.901 2.54547 57.256 2.53247 59.685 2.53247H60.315ZM60.234 4.33447H59.766C57.31 4.33447 56.982 4.34547 55.959 4.39247C54.984 4.43747 54.455 4.59947 54.102 4.73647C53.635 4.91847 53.302 5.13447 52.952 5.48447C52.602 5.83447 52.386 6.16747 52.204 6.63447C52.067 6.98747 51.904 7.51647 51.86 8.49147C51.813 9.51447 51.802 9.84247 51.802 12.2985V12.7665C51.802 15.2225 51.813 15.5505 51.86 16.5735C51.905 17.5485 52.067 18.0775 52.204 18.4305C52.386 18.8965 52.603 19.2305 52.952 19.5805C53.302 19.9305 53.635 20.1465 54.102 20.3285C54.455 20.4655 54.984 20.6285 55.959 20.6725C57.013 20.7205 57.329 20.7305 60 20.7305H60.08C62.677 20.7305 62.997 20.7205 64.04 20.6725C65.016 20.6275 65.545 20.4655 65.898 20.3285C66.364 20.1465 66.698 19.9305 67.048 19.5805C67.398 19.2305 67.614 18.8975 67.796 18.4305C67.933 18.0775 68.096 17.5485 68.14 16.5735C68.188 15.5185 68.198 15.2035 68.198 12.5325V12.4525C68.198 9.85547 68.188 9.53547 68.14 8.49247C68.095 7.51647 67.933 6.98747 67.796 6.63447C67.6358 6.20004 67.3802 5.80707 67.048 5.48447C66.7254 5.15233 66.3324 4.89673 65.898 4.73647C65.545 4.59947 65.016 4.43647 64.041 4.39247C63.018 4.34547 62.69 4.33447 60.234 4.33447ZM60 7.39747C60.6743 7.39747 61.3421 7.53029 61.9651 7.78835C62.5881 8.04641 63.1542 8.42465 63.631 8.90148C64.1078 9.37831 64.4861 9.94438 64.7441 10.5674C65.0022 11.1904 65.135 11.8581 65.135 12.5325C65.135 13.2068 65.0022 13.8745 64.7441 14.4976C64.4861 15.1206 64.1078 15.6866 63.631 16.1635C63.1542 16.6403 62.5881 17.0185 61.9651 17.2766C61.3421 17.5346 60.6743 17.6675 60 17.6675C58.6381 17.6675 57.332 17.1265 56.369 16.1635C55.406 15.2005 54.865 13.8944 54.865 12.5325C54.865 11.1706 55.406 9.86448 56.369 8.90148C57.332 7.93848 58.6381 7.39747 60 7.39747ZM60 9.19947C59.116 9.19947 58.2683 9.55063 57.6432 10.1757C57.0182 10.8007 56.667 11.6485 56.667 12.5325C56.667 13.4164 57.0182 14.2642 57.6432 14.8893C58.2683 15.5143 59.116 15.8655 60 15.8655C60.884 15.8655 61.7317 15.5143 62.3568 14.8893C62.9818 14.2642 63.333 13.4164 63.333 12.5325C63.333 11.6485 62.9818 10.8007 62.3568 10.1757C61.7317 9.55063 60.884 9.19947 60 9.19947ZM65.338 5.99447C65.6563 5.99447 65.9615 6.1209 66.1865 6.34594C66.4116 6.57099 66.538 6.87621 66.538 7.19447C66.538 7.51273 66.4116 7.81796 66.1865 8.043C65.9615 8.26804 65.6563 8.39447 65.338 8.39447C65.0197 8.39447 64.7145 8.26804 64.4895 8.043C64.2644 7.81796 64.138 7.51273 64.138 7.19447C64.138 6.87621 64.2644 6.57099 64.4895 6.34594C64.7145 6.1209 65.0197 5.99447 65.338 5.99447Z" fill="white"/>
<g clip-path="url(#clip0_36_1570)">
<path d="M158.727 13.5408C159.208 13.695 159.625 13.8875 160.012 14.1241L159.987 14.1091C160.428 14.305 160.808 14.5341 161.156 14.8033L161.143 14.7941C161.16 14.845 161.17 14.9025 161.17 14.9633C161.17 14.9725 161.17 14.9808 161.169 14.99V14.9891C161.157 15.3466 161.078 15.6825 160.943 15.9883L160.95 15.9708C160.757 16.3566 160.437 16.6541 160.044 16.8125L160.032 16.8166C159.65 17.0191 159.198 17.1441 158.719 17.1591H158.714C157.798 17.0375 156.969 16.7558 156.224 16.3408L156.26 16.3591C155.408 15.9691 154.681 15.4566 154.063 14.835L154.063 14.8341C153.376 14.12 152.747 13.3383 152.189 12.5058L152.15 12.4441C151.62 11.7533 151.283 10.8891 151.233 9.9483L151.233 9.93747V9.83414C151.259 9.02164 151.622 8.2983 152.186 7.79497L152.188 7.79247C152.361 7.6208 152.598 7.5133 152.859 7.5083H152.86C152.944 7.5108 153.025 7.51747 153.103 7.52914L153.093 7.52747C153.165 7.5383 153.249 7.54497 153.336 7.54664H153.338C153.354 7.54497 153.372 7.54414 153.39 7.54414C153.498 7.54414 153.599 7.57664 153.683 7.63164L153.682 7.6308C153.771 7.72914 153.839 7.8483 153.88 7.97914L153.882 7.9858C153.951 8.15803 154.093 8.53691 154.308 9.12247C154.421 9.38414 154.531 9.70664 154.619 10.0383L154.631 10.0908C154.568 10.3916 154.408 10.6475 154.187 10.8316L154.184 10.8333C153.887 11.1477 153.738 11.3477 153.738 11.4333C153.742 11.5066 153.767 11.5733 153.806 11.6283L153.805 11.6275C154.143 12.3183 154.585 12.905 155.118 13.3933L155.123 13.3975C155.685 13.905 156.328 14.3408 157.024 14.6808L157.073 14.7025C157.154 14.755 157.251 14.7883 157.356 14.7933H157.358C157.487 14.7933 157.72 14.5844 158.056 14.1666C158.392 13.7489 158.615 13.54 158.726 13.54L158.727 13.5408ZM156.104 20.3875H156.123C157.253 20.3875 158.328 20.15 159.301 19.7216L159.25 19.7416C161.213 18.9133 162.744 17.3825 163.552 15.4716L163.573 15.4191C163.981 14.4916 164.218 13.41 164.218 12.2733C164.218 11.1366 163.981 10.055 163.552 9.0758L163.573 9.12747C162.744 7.16414 161.213 5.6333 159.303 4.82497L159.25 4.80497C158.323 4.39664 157.241 4.15914 156.104 4.15914C154.968 4.15914 153.886 4.39664 152.907 4.82497L152.958 4.80497C150.995 5.6333 149.464 7.16414 148.656 9.07497L148.636 9.12747C148.227 10.0583 147.99 11.1433 147.99 12.2833C147.99 14.0675 148.572 15.7166 149.556 17.05L149.54 17.0283L148.519 20.0391L151.646 19.0441C152.888 19.8858 154.418 20.3875 156.067 20.3875H156.106H156.104ZM156.104 2.53247H156.132C157.488 2.53247 158.778 2.81747 159.944 3.33164L159.883 3.30747C162.238 4.30497 164.073 6.1408 165.047 8.43164L165.071 8.49497C165.561 9.60914 165.846 10.9083 165.846 12.2741C165.846 13.64 165.561 14.9391 165.047 16.115L165.071 16.0533C164.073 18.4075 162.238 20.2433 159.947 21.2166L159.883 21.2408C158.778 21.7308 157.488 22.0158 156.131 22.0158C156.122 22.0158 156.112 22.0158 156.103 22.0158H156.104C156.091 22.0158 156.076 22.0158 156.06 22.0158C154.344 22.0158 152.733 21.565 151.34 20.7758L151.388 20.8008L146 22.5325L147.758 17.3C146.882 15.8716 146.362 14.1425 146.362 12.2916C146.362 10.92 146.648 9.61497 147.162 8.43247L147.138 8.49497C148.135 6.1408 149.971 4.30497 152.262 3.33164L152.325 3.30747C153.431 2.81747 154.721 2.53247 156.078 2.53247H156.105L156.104 2.53247Z" fill="white"/>
</g>
<path d="M102.359 5.33276C101.375 5.33276 100.727 6.00476 100.727 6.89276C100.727 7.75676 101.351 8.45201 102.311 8.45201C103.343 8.45201 103.991 7.75676 103.967 6.89276C103.967 6.00476 103.343 5.33276 102.359 5.33276ZM111.575 9.46076C109.919 9.46076 108.911 10.4204 108.503 11.0924H108.455L108.311 9.67676H105.647C105.671 10.5888 105.719 11.6448 105.719 12.8928V19.732H108.791V13.948C108.791 13.66 108.815 13.3724 108.887 13.1564C109.127 12.5804 109.631 11.98 110.471 11.98C111.599 11.98 112.031 12.8684 112.031 14.1644V19.732H115.127V13.8048C115.127 10.8288 113.591 9.46076 111.575 9.46076ZM100.799 9.67676V19.732H103.871V9.67676H100.799Z" fill="#FEFEFE"/>
<defs>
<clipPath id="clip0_36_1570">
<rect width="20" height="20" fill="white" transform="translate(146 2.53247)"/>
</clipPath>
</defs>
</svg>
